<svg xmlns="http://www.w3.org/2000/svg" width="159" height="35">
  <path fill="#FFF" fill-rule="evenodd" d="M21.547 8.369c3.767 0 6.176 3.7 6.176 3.7s-3.675 2.024-3.675 6.42c0 5.217 4.616 6.735 4.616 6.735S25.021 34 20.93 34c-2.3 0-2.454-1.343-5.511-1.343-2.655 0-3.55 1.343-5.573 1.343C5.986 34 1 25.446 1 18.489c0-7.226 5.048-10.12 8.213-10.12 2.78 0 3.936 1.66 6.175 1.66 1.883 0 3.366-1.66 6.16-1.66zM20.9 1c.555 3.542-2.61 7.922-6.392 7.78-.556-4.507 3.52-7.542 6.392-7.78zm34.465 22.473h.04v-11.48h1.978v14.36h-2.497L47.413 14.63h-.04v11.723h-1.978v-14.36h2.578l7.392 11.48zm15.444-1.947c0 .744-.13 1.427-.39 2.049a4.856 4.856 0 0 1-1.078 1.612 4.86 4.86 0 0 1-1.628 1.055 5.388 5.388 0 0 1-2.018.375c-.72 0-1.392-.125-2.018-.375a4.752 4.752 0 0 1-1.619-1.055 4.951 4.951 0 0 1-1.069-1.612 5.265 5.265 0 0 1-.39-2.049c0-.744.13-1.423.39-2.038a4.863 4.863 0 0 1 1.07-1.592 4.83 4.83 0 0 1 1.618-1.045 5.388 5.388 0 0 1 2.018-.375c.719 0 1.392.125 2.018.375a4.787 4.787 0 0 1 2.707 2.637c.26.615.39 1.294.39 2.038zm-1.958 0c0-.46-.07-.899-.21-1.318a3.353 3.353 0 0 0-.609-1.106 2.932 2.932 0 0 0-.989-.76 3.07 3.07 0 0 0-1.348-.284 3.07 3.07 0 0 0-1.349.284c-.393.19-.723.443-.989.76-.266.318-.47.687-.61 1.106a4.13 4.13 0 0 0-.21 1.318c0 .46.07.9.21 1.319.14.419.344.79.61 1.115.266.325.596.582.989.77.393.19.842.285 1.349.285a3.07 3.07 0 0 0 1.348-.284c.393-.19.723-.446.99-.77a3.49 3.49 0 0 0 .609-1.116c.14-.42.21-.86.21-1.319zm9.69-3.225h-2.517v5.01c0 .582.107.997.32 1.247.213.25.552.376 1.019.376.173 0 .36-.02.56-.061a2.11 2.11 0 0 0 .539-.183l.06 1.562a4.5 4.5 0 0 1-.75.193 4.965 4.965 0 0 1-.849.07c-.892 0-1.575-.25-2.048-.75-.473-.5-.71-1.25-.71-2.251V18.3h-1.817v-1.56h1.818v-2.758h1.858v2.758h2.517v1.562zm10.01 8.052h-1.978v-14.36h4.536c.679 0 1.325.071 1.938.213a4.755 4.755 0 0 1 1.608.68c.46.31.822.72 1.089 1.227.266.507.4 1.126.4 1.856 0 1.054-.32 1.906-.96 2.555-.639.65-1.465 1.062-2.477 1.238l3.956 6.591h-2.398l-3.596-6.389h-2.118v6.39zm0-8.072h2.278c.466 0 .899-.04 1.299-.122.4-.08.749-.213 1.048-.395.3-.183.537-.42.71-.71.173-.29.26-.653.26-1.085 0-.433-.087-.795-.26-1.085a2.024 2.024 0 0 0-.69-.7 2.994 2.994 0 0 0-1.009-.375 6.437 6.437 0 0 0-1.218-.112H88.55v4.584zm17.382 2.414a3.675 3.675 0 0 0-.19-1.065 2.453 2.453 0 0 0-.499-.862 2.348 2.348 0 0 0-.82-.578c-.325-.142-.708-.213-1.148-.213a2.996 2.996 0 0 0-2.048.79 3.04 3.04 0 0 0-.64.863 2.782 2.782 0 0 0-.289 1.065h5.634zm1.898.77v.325c0 .108-.006.216-.02.324H100.3a2.987 2.987 0 0 0 .94 2.079 3.098 3.098 0 0 0 2.137.842c.64 0 1.192-.142 1.658-.426a3.405 3.405 0 0 0 1.1-1.034l1.318 1.075c-.506.676-1.102 1.173-1.788 1.49-.686.318-1.449.477-2.288.477a5.37 5.37 0 0 1-1.998-.365 4.609 4.609 0 0 1-1.578-1.024c-.44-.44-.786-.97-1.04-1.592a5.465 5.465 0 0 1-.379-2.07c0-.743.123-1.43.37-2.058a4.72 4.72 0 0 1 1.029-1.612c.44-.447.959-.795 1.558-1.045a4.98 4.98 0 0 1 1.938-.375c.693 0 1.322.115 1.888.345a3.89 3.89 0 0 1 1.439.993c.393.433.696.957.909 1.572.213.616.32 1.309.32 2.08zm5.035 4.888h-1.878V11.02h1.878v15.333zm10.71-5.658a3.675 3.675 0 0 0-.19-1.065 2.453 2.453 0 0 0-.5-.862 2.348 2.348 0 0 0-.82-.578c-.326-.142-.708-.213-1.148-.213a2.996 2.996 0 0 0-2.048.79 3.04 3.04 0 0 0-.64.863 2.782 2.782 0 0 0-.289 1.065h5.634zm1.897.77v.325c0 .108-.006.216-.02.324h-7.512a2.987 2.987 0 0 0 .94 2.079 3.098 3.098 0 0 0 2.137.842c.64 0 1.192-.142 1.658-.426a3.405 3.405 0 0 0 1.1-1.034l1.318 1.075c-.506.676-1.102 1.173-1.788 1.49-.686.318-1.449.477-2.288.477a5.37 5.37 0 0 1-1.998-.365 4.609 4.609 0 0 1-1.578-1.024c-.44-.44-.786-.97-1.04-1.592a5.465 5.465 0 0 1-.379-2.07c0-.743.123-1.43.37-2.058a4.72 4.72 0 0 1 1.029-1.612c.44-.447.959-.795 1.558-1.045a4.98 4.98 0 0 1 1.938-.375c.693 0 1.322.115 1.888.345a3.89 3.89 0 0 1 1.439.993c.393.433.696.957.909 1.572.213.616.32 1.309.32 2.08zm8.891-1.338c0-.717-.213-1.248-.64-1.593-.425-.344-.991-.517-1.697-.517a3.68 3.68 0 0 0-1.509.315c-.473.21-.869.476-1.189.8l-.999-1.216a5.031 5.031 0 0 1 1.709-1.055 6.024 6.024 0 0 1 2.167-.385c.68 0 1.27.098 1.769.294.5.196.909.463 1.228.801.32.338.56.737.72 1.197.16.46.24.953.24 1.48v4.199c0 .324.01.666.03 1.024.02.359.056.653.11.882h-1.699a6.09 6.09 0 0 1-.16-1.379h-.06a3.657 3.657 0 0 1-1.308 1.197c-.527.284-1.15.426-1.869.426-.372 0-.762-.05-1.168-.152a3.371 3.371 0 0 1-1.11-.497 2.79 2.79 0 0 1-.828-.913c-.22-.379-.33-.845-.33-1.4 0-.73.193-1.308.58-1.734.386-.426.892-.75 1.518-.973a8.464 8.464 0 0 1 2.118-.436 27.726 27.726 0 0 1 2.377-.102v-.263zm-.46 1.643c-.465 0-.948.02-1.448.06a6.6 6.6 0 0 0-1.358.244 2.558 2.558 0 0 0-1.01.547c-.266.244-.399.568-.399.974 0 .284.057.52.17.71.113.19.263.345.45.466.186.122.392.207.619.254.226.047.46.071.699.071.88 0 1.555-.267 2.028-.801.473-.534.71-1.207.71-2.018v-.507h-.46zm11.01-2.597a2.472 2.472 0 0 0-.9-.862 2.549 2.549 0 0 0-1.298-.334c-.213 0-.427.023-.64.07a1.862 1.862 0 0 0-.57.224c-.166.101-.299.23-.399.385-.1.156-.15.348-.15.578 0 .406.18.707.54.903.36.196.899.375 1.618.537.453.108.873.237 1.259.386.386.148.723.334 1.009.557.286.224.51.49.67.802.16.31.239.676.239 1.095 0 .568-.107 1.048-.32 1.44a2.802 2.802 0 0 1-.849.963c-.353.25-.756.43-1.209.538a6.001 6.001 0 0 1-1.398.162 5.46 5.46 0 0 1-2.108-.426 4.131 4.131 0 0 1-1.708-1.298l1.338-1.156c.253.379.603.696 1.05.953.446.257.935.386 1.468.386.24 0 .47-.024.69-.071.219-.048.419-.125.599-.234.18-.108.323-.25.43-.426.106-.175.159-.398.159-.669 0-.446-.21-.777-.63-.994-.419-.216-1.035-.419-1.848-.608-.32-.081-.642-.18-.969-.294a3.226 3.226 0 0 1-.889-.477 2.377 2.377 0 0 1-.649-.76c-.166-.305-.25-.68-.25-1.126 0-.514.103-.957.31-1.329a2.7 2.7 0 0 1 .81-.912 3.536 3.536 0 0 1 1.138-.528 5.042 5.042 0 0 1 3.287.233c.632.27 1.122.663 1.468 1.177l-1.299 1.115zm11.188 1.522a3.675 3.675 0 0 0-.19-1.065 2.453 2.453 0 0 0-.5-.862 2.348 2.348 0 0 0-.819-.578c-.326-.142-.709-.213-1.148-.213a2.996 2.996 0 0 0-2.048.79 3.04 3.04 0 0 0-.64.863 2.782 2.782 0 0 0-.29 1.065h5.635zm1.898.77v.325c0 .108-.007.216-.02.324h-7.512c.013.406.103.788.27 1.146.166.359.389.67.669.933a3.098 3.098 0 0 0 2.138.842c.639 0 1.192-.142 1.658-.426a3.405 3.405 0 0 0 1.099-1.034l1.318 1.075c-.506.676-1.102 1.173-1.788 1.49-.686.318-1.448.477-2.287.477-.72 0-1.386-.122-1.998-.365a4.609 4.609 0 0 1-1.579-1.024 4.75 4.75 0 0 1-1.039-1.592c-.253-.622-.38-1.312-.38-2.07 0-.743.124-1.43.37-2.058a4.72 4.72 0 0 1 1.03-1.612 4.679 4.679 0 0 1 1.558-1.045 4.98 4.98 0 0 1 1.938-.375c.692 0 1.322.115 1.888.345a3.89 3.89 0 0 1 1.438.993c.393.433.696.957.91 1.572.212.616.319 1.309.319 2.08z"/>
</svg>
