<svg xmlns="http://www.w3.org/2000/svg" width="154" height="35">
  <path fill="#FFF" fill-rule="evenodd" d="M27.833 12.069s-3.69 2.024-3.69 6.42c0 5.217 4.636 6.735 4.636 6.735S25.12 34 21.012 34c-2.31 0-2.464-1.343-5.534-1.343-2.665 0-3.564 1.343-5.595 1.343C6.007 34 1 25.446 1 18.489c0-7.226 5.07-10.12 8.247-10.12 2.79 0 3.953 1.66 6.2 1.66 1.892 0 3.38-1.66 6.185-1.66 3.783 0 6.201 3.7 6.201 3.7zM20.983 1c.557 3.542-2.621 7.922-6.419 7.78C14.006 4.273 18.1 1.238 20.982 1zm28.672 9.215h2.58l6.856 17.739h-2.58l-1.917-5.342h-7.421l-1.966 5.342h-2.384l6.832-17.74zm-1.745 10.41h5.947l-2.924-8.274h-.05l-2.973 8.274zm12.631-5.516h2.09v1.74h.048a3.142 3.142 0 0 1 1.622-1.553c.738-.323 1.549-.485 2.433-.485.983 0 1.84.182 2.568.547.73.364 1.336.857 1.819 1.478a6.555 6.555 0 0 1 1.093 2.149 8.87 8.87 0 0 1 .37 2.584c0 .91-.12 1.772-.357 2.584a6.108 6.108 0 0 1-1.082 2.124 5.106 5.106 0 0 1-1.818 1.429c-.73.347-1.577.521-2.544.521a6.213 6.213 0 0 1-2.187-.422 4.452 4.452 0 0 1-1.069-.609 3.39 3.39 0 0 1-.848-.956h-.049v6.608h-2.089V15.11zm9.83 6.31c0-.595-.077-1.18-.233-1.75a4.75 4.75 0 0 0-.713-1.529 3.503 3.503 0 0 0-1.229-1.068c-.5-.265-1.085-.398-1.757-.398-.704 0-1.302.141-1.794.423a3.61 3.61 0 0 0-1.204 1.105 4.648 4.648 0 0 0-.676 1.553 7.526 7.526 0 0 0-.208 1.764c0 .63.073 1.238.22 1.826.148.588.382 1.106.701 1.553.32.447.733.808 1.241 1.08.508.274 1.122.41 1.843.41.721 0 1.323-.14 1.807-.422a3.374 3.374 0 0 0 1.167-1.118c.295-.463.508-.993.639-1.59.13-.596.196-1.209.196-1.838zm4.743-6.31h2.09v1.74h.048a3.142 3.142 0 0 1 1.622-1.553c.738-.323 1.548-.485 2.433-.485.983 0 1.84.182 2.568.547a5.23 5.23 0 0 1 1.819 1.478 6.555 6.555 0 0 1 1.093 2.149 8.87 8.87 0 0 1 .369 2.584c0 .91-.119 1.772-.356 2.584a6.108 6.108 0 0 1-1.082 2.124 5.106 5.106 0 0 1-1.818 1.429c-.73.347-1.577.521-2.544.521a6.213 6.213 0 0 1-2.187-.422 4.452 4.452 0 0 1-1.069-.609 3.39 3.39 0 0 1-.848-.956h-.049v6.608h-2.089V15.11zm9.83 6.31a6.65 6.65 0 0 0-.233-1.75 4.75 4.75 0 0 0-.713-1.529 3.503 3.503 0 0 0-1.229-1.068c-.5-.265-1.085-.398-1.757-.398-.704 0-1.302.141-1.794.423a3.61 3.61 0 0 0-1.204 1.105 4.648 4.648 0 0 0-.676 1.553 7.526 7.526 0 0 0-.209 1.764c0 .63.074 1.238.222 1.826.147.588.38 1.106.7 1.553.32.447.733.808 1.241 1.08.508.274 1.122.41 1.843.41.721 0 1.323-.14 1.806-.422a3.374 3.374 0 0 0 1.168-1.118c.295-.463.508-.993.639-1.59.13-.596.196-1.209.196-1.838zm21.995-6.012c-.131-1.275-.586-2.198-1.364-2.77-.778-.571-1.774-.857-2.986-.857-.491 0-.975.05-1.45.149-.475.1-.897.265-1.265.497a2.596 2.596 0 0 0-.885.932c-.221.389-.332.873-.332 1.453 0 .547.16.99.48 1.33.319.339.745.616 1.277.832.533.215 1.135.393 1.806.534.672.14 1.356.294 2.052.46.697.165 1.38.36 2.052.583a6.74 6.74 0 0 1 1.807.907 4.3 4.3 0 0 1 1.278 1.441c.319.58.479 1.309.479 2.186 0 .945-.21 1.752-.627 2.423a5.187 5.187 0 0 1-1.61 1.64 6.963 6.963 0 0 1-2.199.919c-.811.19-1.618.286-2.42.286-.984 0-1.913-.125-2.79-.373a6.857 6.857 0 0 1-2.31-1.13 5.347 5.347 0 0 1-1.573-1.938c-.385-.787-.577-1.719-.577-2.796h2.212c0 .746.143 1.388.43 1.926.286.538.663.981 1.13 1.33a4.747 4.747 0 0 0 1.634.77 7.423 7.423 0 0 0 1.917.248 8.57 8.57 0 0 0 1.585-.15 4.603 4.603 0 0 0 1.438-.509c.426-.24.77-.567 1.032-.981.262-.414.393-.944.393-1.59 0-.613-.16-1.11-.479-1.49-.32-.382-.745-.692-1.278-.932a9.283 9.283 0 0 0-1.806-.584l-2.052-.46c-.696-.157-1.38-.34-2.052-.547a7.387 7.387 0 0 1-1.806-.82 3.908 3.908 0 0 1-1.278-1.316c-.32-.538-.48-1.213-.48-2.025 0-.894.18-1.669.541-2.323a4.76 4.76 0 0 1 1.438-1.615 6.42 6.42 0 0 1 2.04-.944 8.909 8.909 0 0 1 2.346-.31 9.28 9.28 0 0 1 2.507.322c.77.216 1.446.555 2.027 1.019a4.905 4.905 0 0 1 1.377 1.752c.335.703.52 1.544.553 2.521h-2.212zm8.33-.298h2.532v1.864h-2.531v7.975c0 .248.02.447.061.596.041.15.119.265.234.348.114.083.274.137.479.161.205.025.47.038.798.038h.959v1.863h-1.597a7.384 7.384 0 0 1-1.389-.112c-.385-.074-.696-.211-.934-.41-.237-.198-.413-.48-.528-.844-.115-.365-.172-.845-.172-1.441v-8.174h-2.163v-1.864h2.163v-3.85h2.089v3.85zm4.154 6.435c0-.944.13-1.826.393-2.646a6.013 6.013 0 0 1 1.18-2.137 5.56 5.56 0 0 1 1.941-1.428c.77-.348 1.655-.522 2.654-.522 1.016 0 1.905.174 2.667.522a5.589 5.589 0 0 1 1.929 1.428 6.013 6.013 0 0 1 1.18 2.137c.261.82.392 1.702.392 2.646s-.13 1.822-.393 2.634a6.03 6.03 0 0 1-1.18 2.124 5.455 5.455 0 0 1-1.928 1.416c-.762.34-1.651.51-2.667.51-1 0-1.884-.17-2.654-.51a5.43 5.43 0 0 1-1.941-1.416 6.03 6.03 0 0 1-1.18-2.124 8.523 8.523 0 0 1-.393-2.634zm2.212 0c0 .779.102 1.47.307 2.075.205.604.487 1.11.848 1.515.36.406.782.716 1.265.932.484.215.995.323 1.536.323.54 0 1.053-.108 1.536-.323a3.681 3.681 0 0 0 1.266-.932c.36-.406.643-.91.848-1.515.204-.605.307-1.296.307-2.075 0-.778-.103-1.47-.307-2.075-.205-.604-.488-1.113-.848-1.527a3.613 3.613 0 0 0-1.266-.945 3.732 3.732 0 0 0-1.536-.323c-.54 0-1.052.108-1.536.323a3.61 3.61 0 0 0-1.265.945c-.36.414-.643.923-.848 1.527-.205.605-.307 1.297-.307 2.075zm12.508-6.435h1.966v2.708h.05c.507-1.043 1.13-1.813 1.867-2.31.737-.497 1.671-.73 2.802-.696v2.236c-.836 0-1.549.116-2.138.348-.59.232-1.065.571-1.426 1.019-.36.447-.622.99-.786 1.627-.164.638-.246 1.37-.246 2.199v5.714h-2.089V15.109zm18.653 8.77c-.279 1.441-.893 2.526-1.844 3.255-.95.729-2.146 1.093-3.588 1.093-1.015 0-1.896-.165-2.641-.497a5.212 5.212 0 0 1-1.88-1.39c-.508-.597-.89-1.31-1.143-2.138a10.4 10.4 0 0 1-.43-2.708c0-.977.147-1.871.442-2.683a6.428 6.428 0 0 1 1.241-2.112 5.634 5.634 0 0 1 1.893-1.391 5.724 5.724 0 0 1 2.396-.497c1.13 0 2.068.236 2.813.708a5.595 5.595 0 0 1 1.794 1.801c.45.73.762 1.524.934 2.385.172.862.242 1.682.21 2.46h-9.511a5.153 5.153 0 0 0 .196 1.603c.148.505.385.952.713 1.341.328.39.745.7 1.253.932.508.232 1.106.348 1.794.348.885 0 1.61-.207 2.175-.621.565-.414.938-1.044 1.118-1.889h2.065zm-2.016-3.577a4.36 4.36 0 0 0-.331-1.416 3.622 3.622 0 0 0-.762-1.156 3.54 3.54 0 0 0-2.568-1.056c-.54 0-1.028.096-1.462.286-.435.19-.807.451-1.119.783a3.749 3.749 0 0 0-.737 1.155 4.44 4.44 0 0 0-.32 1.404h7.3z"/>
</svg>
