<svg xmlns="http://www.w3.org/2000/svg" width="24" height="24">
  <defs>
    <linearGradient id="prefix__ic_like_gradient-a" x1="-12.342%" x2="112.646%" y1="-17.761%" y2="98.994%">
      <stop offset="0%" stop-color="#32A7E6"/>
      <stop offset="100%" stop-color="#64E3B2"/>
    </linearGradient>
  </defs>
  <path fill="url(#prefix__ic_like_gradient-a)" d="M21.166 14.551a1.88 1.88 0 0 1 0 2.533c.304.336.49.78.49 1.266 0 .874-.601 1.612-1.416 1.832.087.217.135.453.135.7 0 1.047-.862 1.9-1.922 1.9h-5.367a7.112 7.112 0 0 1-2.228-.358l-2.201-.725a1.926 1.926 0 0 1-1.735 1.082H3.078a.637.637 0 0 1-.64-.633V10.753c0-.35.286-.633.64-.633h3.844c.811 0 1.506.5 1.788 1.203 1.606-.387 3.159-2.519 3.648-4.45l.349-1.38a.64.64 0 0 1 .621-.48h.64c1.414 0 2.563 1.136 2.563 2.532v.633c0 .63-.157 2.1-.527 3.208h3.73c1.06 0 1.922.852 1.922 1.9 0 .485-.186.929-.49 1.265zM7.562 20.882v-8.863a.638.638 0 0 0-.64-.633H3.719v10.13h3.203c.353 0 .64-.285.64-.634zm10.891-5.698a.637.637 0 0 1-.64-.633c0-.35.287-.633.64-.633h1.281a.637.637 0 0 0 .641-.633.638.638 0 0 0-.64-.633h-6.407a.637.637 0 0 1-.64-.633c0-.35.287-.633.64-.633h1.309c.344-.728.613-2.358.613-3.208v-.633c0-.698-.575-1.266-1.281-1.266h-.14l-.228.9c-.31 1.228-1.014 2.561-1.88 3.566-.889 1.03-1.872 1.659-2.877 1.847v7.834l2.419.797a5.816 5.816 0 0 0 1.823.292h5.367c.353 0 .64-.284.64-.633a.638.638 0 0 0-.64-.633.637.637 0 0 1-.64-.633c0-.35.287-.633.64-.633h1.281a.637.637 0 0 0 .641-.633.638.638 0 0 0-.64-.633h-1.282a.637.637 0 0 1-.64-.633c0-.35.287-.633.64-.633h1.281a.638.638 0 0 0 .641-.634.638.638 0 0 0-.64-.633h-1.282zM5.625 20.283a.652.652 0 0 1-.656-.648c0-.358.294-.648.656-.648.362 0 .656.29.656.648a.652.652 0 0 1-.656.648z"/>
</svg>
