<svg xmlns="http://www.w3.org/2000/svg" width="166" height="31">
  <path fill="#32A7E6" fill-rule="evenodd" d="M116.092 19.252l-1.334 1.29c-.309.173-.615.375-.921.518-.927.431-1.87.54-2.707.54-.892 0-2.29-.06-3.715-1.116-1.98-1.428-2.846-3.884-2.846-6.023 0-4.43 3.522-6.603 6.394-6.603 1.004 0 2.035.257 2.874.8 1.394.944 1.754 2.171 1.954 2.828l-6.559 2.714-2.148.17c.695 3.633 3.095 5.746 5.747 5.746 1.324 0 2.307-.443 3.21-.9 0 0 .18-.096.051.036zm-3.957-7.225c.533-.198.81-.37.81-.767 0-1.141-1.261-2.46-2.766-2.46-1.115 0-3.208.89-3.208 3.976 0 .482.057.995.085 1.509l5.08-2.258zm-9.758 7.004c0 1.11.194 1.283 1.11 1.37.479.058.955.083 1.426.14l-1.032.63h-4.917c.645-.857.756-.942.756-1.513v-.638l-.01-16.989h-2.172L99.628 1h3.99c-.864.513-1.123.826-1.234 1.826l-.007 16.205zM94.751 9.26c.641.54 1.978 1.684 1.978 3.855 0 2.116-1.165 3.114-2.34 4.058-.36.371-.782.775-.782 1.398 0 .632.422.975.725 1.23l1.008.798c1.225 1.059 2.343 2.03 2.343 4.003 0 2.688-2.54 5.398-7.34 5.398-4.044 0-5.998-1.972-5.998-4.086 0-1.03.5-2.486 2.15-3.485 1.73-1.083 4.073-1.227 5.328-1.312-.391-.518-.839-1.061-.839-1.947 0-.484.142-.773.28-1.113-.305.03-.613.06-.892.06-2.96 0-4.633-2.26-4.633-4.489 0-1.314.586-2.772 1.788-3.829 1.591-1.34 3.488-1.572 4.995-1.572h5.75L96.484 9.26h-1.733zm-1.977 12.685c-.229-.03-.366-.03-.642-.03-.253 0-1.76.055-2.928.457-.618.23-2.403.914-2.403 2.944 0 2.025 1.928 3.486 4.91 3.486 2.678 0 4.1-1.315 4.1-3.086 0-1.457-.92-2.226-3.037-3.771zm.802-5.43c.645-.659.702-1.57.702-2.087 0-2.055-1.197-5.256-3.516-5.256-.724 0-1.508.372-1.952.947-.473.595-.614 1.367-.614 2.11 0 1.913 1.09 5.087 3.487 5.087.7 0 1.452-.348 1.893-.8zM77.452 21.54c-4.435 0-6.808-3.537-6.808-6.739 0-3.742 2.983-6.943 7.226-6.943 4.102 0 6.671 3.288 6.671 6.741 0 3.373-2.539 6.941-7.09 6.941zm3.49-2.311c.674-.915.838-2.056.838-3.169 0-2.516-1.171-7.316-4.632-7.316a3.84 3.84 0 0 0-2.515.97c-1.09 1-1.284 2.256-1.284 3.49 0 2.822 1.363 7.478 4.745 7.478 1.091 0 2.205-.54 2.847-1.453zm-18.34 2.311c-4.436 0-6.805-3.537-6.805-6.739 0-3.742 2.985-6.943 7.226-6.943 4.1 0 6.666 3.288 6.666 6.741 0 3.373-2.536 6.941-7.087 6.941zm3.49-2.311c.67-.915.837-2.056.837-3.169 0-2.516-1.174-7.316-4.63-7.316-.924 0-1.841.369-2.511.97-1.092 1-1.285 2.256-1.285 3.49 0 2.822 1.368 7.478 4.744 7.478 1.09 0 2.201-.54 2.846-1.453zm-12.068 1.32l-3.74.877c-1.516.245-2.877.46-4.319.46-7.215 0-9.964-5.439-9.964-9.695 0-5.199 3.895-10.018 10.566-10.018 1.412 0 2.77.212 4.006.558 1.96.564 2.878 1.259 3.45 1.666l-2.172 2.114-.916.21.653-1.066c-.885-.885-2.511-2.519-5.598-2.519-4.127 0-7.24 3.213-7.24 7.903 0 5.037 3.555 9.776 9.256 9.776 1.675 0 2.538-.345 3.32-.667V15.83l-3.95.217 2.094-1.151h5.544l-.678.668c-.183.16-.208.213-.26.427a19.6 19.6 0 0 0-.052 1.292v3.266zm70.111-1.175v7.278h-1.411V8.132h1.411v2.11c.92-1.363 2.6-2.444 4.551-2.444 3.5 0 5.858 2.72 5.858 7.023 0 4.276-2.358 7.051-5.858 7.051-1.842 0-3.492-.973-4.55-2.498zm8.892-4.553c0-3.244-1.651-5.718-4.579-5.718-1.818 0-3.557 1.463-4.313 2.74v5.928c.756 1.278 2.495 2.795 4.313 2.795 2.928 0 4.58-2.496 4.58-5.745zm3.444-11.802h1.41v18.52h-1.41V3.019zm17.248 22.436c.302.138.817.222 1.144.222.863 0 1.464-.361 2.004-1.638l1.03-2.389-5.56-13.517h1.574l4.77 11.714 4.722-11.714H165l-6.781 16.354c-.704 1.685-1.81 2.495-3.331 2.495-.457 0-1.059-.083-1.411-.194l.242-1.333zm-4.122-3.956a25.426 25.426 0 0 1-.218-1.217 8.355 8.355 0 0 1-.068-1.045c-.483.727-1.169 1.333-2.045 1.81-.876.48-1.709.715-2.85.715-1.376 0-2.443-.346-3.205-1.049-.759-.702-1.14-1.653-1.14-2.856 0-1.202.553-2.177 1.656-2.923 1.103-.75 2.528-1.122 4.293-1.122h3.291v-1.666c0-.959-.319-1.713-.956-2.26-.64-.548-1.538-.825-2.703-.825-1.064 0-1.927.253-2.584.746-.652.503-.98 1.126-.98 1.877h-1.445l-.03-.072c-.051-1.013.4-1.9 1.362-2.668.958-.766 2.212-1.151 3.756-1.151 1.539 0 2.784.379 3.722 1.136.938.75 1.409 1.832 1.409 3.248v6.613c0 .475.022.934.08 1.381.06.448.154.895.281 1.328h-1.626zm-5.009-1.054c1.2 0 2.06-.274 2.941-.817.875-.54 1.47-1.243 1.782-2.095V14.96h-3.307c-1.264 0-2.31.287-3.132.864-.825.576-1.242 1.273-1.242 2.083 0 .765.264 1.376.79 1.84.528.467 1.249.7 2.168.7zM1.75 26.86c-.454-.124-.75-.58-.75-1.287V2.256c0-.654.25-1.096.647-1.256l11.32 12.994L1.75 26.859zm1.558-.495l10.308-11.626 3.319 3.809-13.627 7.817zm13.72-17.027l-3.392 3.891-10.044-11.6 13.437 7.709zm.912.523l5.264 3.02c.997.572 1.006 1.494 0 2.07l-5.397 3.097-3.52-4.066L17.94 9.86z"/>
</svg>
