<svg xmlns="http://www.w3.org/2000/svg" width="156" height="27">
  <path fill="#FFF" fill-rule="evenodd" d="M52.553 15.875h.04V4.768h1.974V18.66h-2.493L44.615 7.32h-.04v11.34h-1.974V4.768h2.573l7.379 11.107zm15.416-1.884c0 .72-.13 1.38-.39 1.982a4.708 4.708 0 0 1-1.076 1.56 4.87 4.87 0 0 1-1.626 1.02 5.528 5.528 0 0 1-2.014.363c-.718 0-1.39-.12-2.014-.363a4.76 4.76 0 0 1-1.615-1.02 4.782 4.782 0 0 1-1.067-1.56 4.957 4.957 0 0 1-.39-1.982c0-.72.13-1.377.39-1.972a4.699 4.699 0 0 1 1.067-1.54 4.84 4.84 0 0 1 1.615-1.011 5.528 5.528 0 0 1 2.014-.363c.718 0 1.39.12 2.014.363a4.952 4.952 0 0 1 1.626 1.01c.459.432.818.945 1.077 1.54.259.596.389 1.253.389 1.973zm-1.955 0c0-.445-.07-.87-.21-1.276a3.217 3.217 0 0 0-.607-1.07 2.918 2.918 0 0 0-.988-.735 3.147 3.147 0 0 0-1.346-.275c-.505 0-.954.092-1.346.275a2.918 2.918 0 0 0-.987.736 3.217 3.217 0 0 0-.608 1.07c-.14.405-.21.83-.21 1.275 0 .445.07.87.21 1.275.14.406.342.766.608 1.08.266.314.595.562.987.745.392.184.841.275 1.346.275.505 0 .954-.091 1.346-.275a2.86 2.86 0 0 0 .988-.745 3.33 3.33 0 0 0 .608-1.08c.14-.405.21-.83.21-1.275zm9.673-3.12h-2.513v4.847c0 .562.106.965.319 1.207.213.242.552.363 1.017.363.173 0 .359-.02.558-.06.2-.039.38-.097.539-.176l.06 1.511c-.226.079-.476.14-.748.187a5.11 5.11 0 0 1-.848.068c-.89 0-1.572-.242-2.044-.726s-.708-1.21-.708-2.178v-5.043h-1.815V9.36h1.815V6.69h1.855v2.67h2.513v1.51zm9.991 7.79h-1.974V4.768h4.527a8.76 8.76 0 0 1 1.934.206 4.827 4.827 0 0 1 1.606.657c.458.301.82.697 1.087 1.187.265.491.398 1.09.398 1.796 0 1.02-.319 1.845-.957 2.473-.638.628-1.462 1.027-2.473 1.197l3.949 6.377h-2.393l-3.59-6.181h-2.114v6.181zm0-7.81h2.274c.465 0 .897-.04 1.296-.118a3.296 3.296 0 0 0 1.047-.382c.299-.177.535-.406.708-.687.173-.281.26-.631.26-1.05 0-.419-.087-.769-.26-1.05a1.989 1.989 0 0 0-.688-.677 3.047 3.047 0 0 0-1.007-.363 6.623 6.623 0 0 0-1.217-.108h-2.413v4.435zm17.35 2.335a3.458 3.458 0 0 0-.189-1.03 2.357 2.357 0 0 0-.499-.834 2.345 2.345 0 0 0-.817-.56c-.326-.137-.708-.205-1.147-.205-.399 0-.774.068-1.127.206a2.934 2.934 0 0 0-.917.559 2.95 2.95 0 0 0-.638.834c-.166.32-.263.664-.29 1.03h5.624zm1.895.746v.314c0 .105-.007.21-.02.314h-7.498c.013.392.103.762.269 1.109.166.346.389.647.668.902a3.156 3.156 0 0 0 2.134.814c.638 0 1.19-.137 1.655-.411a3.357 3.357 0 0 0 1.097-1.001l1.316 1.04c-.505.654-1.1 1.135-1.785 1.442-.684.308-1.446.461-2.283.461a5.504 5.504 0 0 1-1.995-.353 4.617 4.617 0 0 1-1.575-.99 4.589 4.589 0 0 1-1.037-1.541 5.122 5.122 0 0 1-.379-2.002c0-.72.123-1.383.369-1.992a4.552 4.552 0 0 1 1.027-1.56 4.708 4.708 0 0 1 1.556-1.01 5.11 5.11 0 0 1 1.934-.363c.691 0 1.32.11 1.885.333a3.888 3.888 0 0 1 1.436.962c.392.418.694.925.907 1.52.213.596.32 1.266.32 2.012zm5.026 4.73h-1.875V3.825h1.875V18.66zm10.69-5.476a3.458 3.458 0 0 0-.19-1.03 2.357 2.357 0 0 0-.499-.834 2.345 2.345 0 0 0-.818-.56c-.325-.137-.707-.205-1.146-.205-.4 0-.775.068-1.127.206a2.934 2.934 0 0 0-.917.559 2.95 2.95 0 0 0-.639.834c-.166.32-.262.664-.289 1.03h5.624zm1.894.746v.314c0 .105-.007.21-.02.314h-7.499c.014.392.103.762.27 1.109.166.346.388.647.668.902a3.156 3.156 0 0 0 2.134.814c.638 0 1.19-.137 1.655-.411a3.357 3.357 0 0 0 1.097-1.001l1.316 1.04c-.505.654-1.1 1.135-1.785 1.442-.685.308-1.446.461-2.284.461a5.504 5.504 0 0 1-1.994-.353 4.617 4.617 0 0 1-1.575-.99 4.589 4.589 0 0 1-1.037-1.541 5.122 5.122 0 0 1-.38-2.002c0-.72.124-1.383.37-1.992a4.552 4.552 0 0 1 1.027-1.56 4.708 4.708 0 0 1 1.555-1.01 5.11 5.11 0 0 1 1.935-.363c.691 0 1.32.11 1.884.333a3.888 3.888 0 0 1 1.436.962c.392.418.695.925.908 1.52.212.596.319 1.266.319 2.012zm8.874-1.295c0-.694-.212-1.207-.638-1.54-.425-.334-.99-.501-1.695-.501a3.77 3.77 0 0 0-1.506.304 3.818 3.818 0 0 0-1.186.775l-.997-1.177a5.05 5.05 0 0 1 1.705-1.02 6.183 6.183 0 0 1 2.164-.373c.678 0 1.266.094 1.765.284.498.19.907.448 1.226.775.32.327.558.713.718 1.158.16.445.24.922.24 1.433v4.062c0 .314.01.644.03.99.02.347.056.632.109.854h-1.695a5.72 5.72 0 0 1-.16-1.334h-.06a3.61 3.61 0 0 1-1.306 1.158c-.525.274-1.147.412-1.865.412a4.96 4.96 0 0 1-1.166-.147 3.418 3.418 0 0 1-1.107-.481 2.733 2.733 0 0 1-.828-.883c-.22-.367-.329-.818-.329-1.354 0-.707.193-1.266.579-1.678.385-.412.89-.726 1.515-.942a8.681 8.681 0 0 1 2.114-.422 28.547 28.547 0 0 1 2.373-.098v-.255zm-.458 1.59c-.466 0-.948.019-1.446.058a6.81 6.81 0 0 0-1.356.236 2.578 2.578 0 0 0-1.007.53c-.266.235-.4.549-.4.941 0 .275.057.504.17.687.113.183.263.334.449.452.186.117.392.2.618.245.226.046.459.069.698.069.878 0 1.552-.259 2.024-.776.472-.516.708-1.167.708-1.952v-.49h-.458zm10.988-2.512a2.435 2.435 0 0 0-.897-.835 2.608 2.608 0 0 0-1.296-.323c-.213 0-.426.023-.639.068a1.893 1.893 0 0 0-.568.216c-.166.098-.3.223-.399.373a.99.99 0 0 0-.15.56c0 .392.18.683.54.873.358.19.896.363 1.614.52.452.104.871.229 1.257.372.385.144.721.324 1.007.54.286.216.509.474.668.775.16.301.24.654.24 1.06 0 .55-.107 1.014-.32 1.393a2.74 2.74 0 0 1-.847.932 3.504 3.504 0 0 1-1.207.52 6.169 6.169 0 0 1-1.396.157c-.718 0-1.42-.137-2.104-.412a4.113 4.113 0 0 1-1.705-1.256l1.336-1.118c.253.366.602.674 1.047.922.446.249.934.373 1.466.373.24 0 .469-.023.688-.069.22-.045.419-.12.598-.225.18-.105.323-.242.43-.412.106-.17.159-.386.159-.648 0-.432-.21-.752-.629-.962-.418-.209-1.033-.405-1.844-.588a11.49 11.49 0 0 1-.967-.285 3.255 3.255 0 0 1-.888-.461 2.32 2.32 0 0 1-.648-.736c-.166-.294-.25-.657-.25-1.089 0-.497.104-.926.31-1.285.206-.36.475-.654.807-.883a3.582 3.582 0 0 1 1.137-.51 5.183 5.183 0 0 1 3.28.225c.632.262 1.12.641 1.467 1.138l-1.297 1.08zm11.168 1.471a3.458 3.458 0 0 0-.189-1.03 2.357 2.357 0 0 0-.499-.834 2.345 2.345 0 0 0-.817-.56c-.326-.137-.708-.205-1.147-.205-.399 0-.774.068-1.127.206a2.934 2.934 0 0 0-.917.559 2.95 2.95 0 0 0-.638.834 2.62 2.62 0 0 0-.29 1.03h5.624zm1.895.746v.314c0 .105-.007.21-.02.314h-7.499c.014.392.104.762.27 1.109.166.346.389.647.668.902s.601.455.967.599c.366.144.755.216 1.167.216.638 0 1.19-.138 1.655-.412a3.357 3.357 0 0 0 1.097-1.001l1.316 1.04c-.505.654-1.1 1.135-1.785 1.442-.685.308-1.446.461-2.283.461a5.504 5.504 0 0 1-1.995-.353 4.617 4.617 0 0 1-1.575-.99 4.589 4.589 0 0 1-1.037-1.541 5.122 5.122 0 0 1-.379-2.002c0-.72.123-1.383.369-1.992a4.552 4.552 0 0 1 1.027-1.56 4.708 4.708 0 0 1 1.556-1.01 5.11 5.11 0 0 1 1.934-.363c.691 0 1.32.11 1.885.333a3.888 3.888 0 0 1 1.436.962c.392.418.694.925.907 1.52.213.596.319 1.266.319 2.012zM1.748 26C1.295 25.88 1 25.439 1 24.756V2.214c0-.632.25-1.059.645-1.214l11.288 12.562L1.748 26zm1.554-.478l10.278-11.24 3.309 3.682-13.587 7.558zM16.982 9.06L13.6 12.822 3.585 1.606 16.983 9.06zm.91.506l5.248 2.92c.994.552 1.003 1.444 0 2.001l-5.381 2.994-3.51-3.931 3.643-3.984z"/>
</svg>
