<svg xmlns="http://www.w3.org/2000/svg" width="152" height="26">
  <path fill="#FFF" d="M8.493 13c0-2.472 2.006-4.484 4.472-4.484 2.465 0 4.471 2.012 4.471 4.485 0 2.473-2.006 4.485-4.471 4.485-2.466 0-4.472-2.012-4.472-4.485zm14.768-5.92c-.035.062-.1.1-.17.1h-9.62a5.83 5.83 0 0 0-6.148 4.362.196.196 0 0 1-.36.048L3.595 5.74a.197.197 0 0 1 .016-.221A11.9 11.9 0 0 1 12.965 1c2.114 0 4.191.56 6.008 1.62a12.056 12.056 0 0 1 4.286 4.263c.036.06.037.136.002.198zM14.733 18.7c.049.063.055.15.015.22l-3.37 5.852a.196.196 0 0 1-.198.097 11.953 11.953 0 0 1-7.25-4.001A12.035 12.035 0 0 1 2.535 7.117a.196.196 0 1 1 .34-.002l4.805 8.347a5.855 5.855 0 0 0 5.284 3.382 5.8 5.8 0 0 0 1.56-.213.195.195 0 0 1 .208.07zm9.19-10.207c.081 0 .154.05.183.125a11.96 11.96 0 0 1 .824 4.383c0 3.181-1.229 6.179-3.46 8.44A11.875 11.875 0 0 1 13.1 25h-.002a.196.196 0 0 1-.17-.295l4.814-8.362A5.814 5.814 0 0 0 18.792 13c0-1.579-.622-3.06-1.751-4.17a.197.197 0 0 1 .137-.337h6.746zm24.637 7.714h.04V4.851h1.975v14.205h-2.493L40.624 7.459h-.04v11.597H38.61V4.851h2.572l7.378 11.356zm15.415-1.926c0 .736-.13 1.411-.389 2.026a4.818 4.818 0 0 1-1.076 1.595c-.46.448-1 .796-1.626 1.044a5.42 5.42 0 0 1-2.014.37 5.42 5.42 0 0 1-2.014-.37 4.747 4.747 0 0 1-1.615-1.044 4.895 4.895 0 0 1-1.067-1.595 5.167 5.167 0 0 1-.389-2.026c0-.736.13-1.408.389-2.016a4.808 4.808 0 0 1 1.067-1.575c.452-.442.99-.786 1.615-1.034a5.42 5.42 0 0 1 2.014-.37c.718 0 1.39.123 2.014.37a4.936 4.936 0 0 1 1.626 1.034 4.73 4.73 0 0 1 1.076 1.575c.26.608.39 1.28.39 2.016zm-1.954 0c0-.455-.07-.89-.21-1.304a3.308 3.308 0 0 0-.608-1.094 2.924 2.924 0 0 0-.987-.752 3.088 3.088 0 0 0-1.346-.28c-.505 0-.954.093-1.346.28a2.924 2.924 0 0 0-.987.752 3.308 3.308 0 0 0-.608 1.094c-.14.414-.21.85-.21 1.304 0 .455.07.89.21 1.304.14.415.342.782.608 1.104.266.32.595.575.987.762.392.187.841.28 1.346.28.505 0 .954-.093 1.346-.28.392-.187.722-.441.987-.762.266-.322.469-.69.609-1.104.14-.415.209-.85.209-1.304zm9.672-3.19H69.18v4.955c0 .576.106.987.32 1.234.212.248.55.372 1.016.372.173 0 .359-.02.558-.06.2-.04.38-.101.539-.181l.06 1.545c-.226.08-.476.143-.748.19-.273.047-.555.07-.848.07-.89 0-1.572-.247-2.044-.742s-.708-1.237-.708-2.227v-5.156h-1.814V9.546h1.814V6.817h1.855v2.729h2.513v1.545zm9.99 7.965H79.71V4.851h4.527c.678 0 1.323.07 1.934.21a4.763 4.763 0 0 1 1.605.673c.46.308.821.712 1.087 1.214.266.501.4 1.113.4 1.836 0 1.043-.32 1.886-.958 2.528-.638.642-1.462 1.05-2.473 1.223l3.949 6.521h-2.393l-3.59-6.32h-2.114v6.32zm0-7.985h2.274c.465 0 .897-.04 1.296-.12a3.25 3.25 0 0 0 1.047-.392c.299-.18.535-.414.708-.702.173-.288.259-.645.259-1.073 0-.428-.086-.786-.26-1.074a2.01 2.01 0 0 0-.687-.692 3.005 3.005 0 0 0-1.007-.371 6.481 6.481 0 0 0-1.217-.11h-2.413v4.534zm17.35 2.387a3.606 3.606 0 0 0-.19-1.053 2.421 2.421 0 0 0-.499-.853 2.343 2.343 0 0 0-.817-.571 2.888 2.888 0 0 0-1.147-.211 3.014 3.014 0 0 0-2.044.782 3.01 3.01 0 0 0-.638.853 2.733 2.733 0 0 0-.29 1.053h5.624zm1.894.763v.32c0 .108-.007.215-.02.322h-7.498a2.96 2.96 0 0 0 .937 2.056 3.095 3.095 0 0 0 2.134.833c.638 0 1.19-.14 1.655-.421a3.386 3.386 0 0 0 1.097-1.024l1.316 1.064c-.505.668-1.1 1.16-1.785 1.474-.684.315-1.446.472-2.283.472-.718 0-1.383-.12-1.994-.361a4.604 4.604 0 0 1-1.576-1.014 4.699 4.699 0 0 1-1.037-1.575c-.252-.615-.378-1.297-.378-2.046 0-.736.123-1.414.368-2.036a4.664 4.664 0 0 1 1.027-1.595 4.699 4.699 0 0 1 1.556-1.034 5.01 5.01 0 0 1 1.934-.37c.692 0 1.32.113 1.885.34a3.884 3.884 0 0 1 1.435.983c.393.428.695.947.908 1.555.213.609.319 1.294.319 2.057zm5.025 4.835h-1.874V3.888h1.874v15.168zm10.689-5.598a3.606 3.606 0 0 0-.19-1.053 2.421 2.421 0 0 0-.498-.853 2.343 2.343 0 0 0-.818-.571 2.887 2.887 0 0 0-1.146-.211 3.014 3.014 0 0 0-2.044.782 3.01 3.01 0 0 0-.639.853 2.733 2.733 0 0 0-.289 1.053h5.624zm1.894.763v.32c0 .108-.006.215-.02.322h-7.498a2.962 2.962 0 0 0 .938 2.056 3.095 3.095 0 0 0 2.133.833c.638 0 1.19-.14 1.655-.421a3.376 3.376 0 0 0 1.097-1.024l1.316 1.064c-.505.668-1.1 1.16-1.784 1.474-.685.315-1.446.472-2.284.472-.718 0-1.382-.12-1.994-.361a4.604 4.604 0 0 1-1.575-1.014 4.699 4.699 0 0 1-1.037-1.575c-.253-.615-.38-1.297-.38-2.046 0-.736.124-1.414.37-2.036a4.664 4.664 0 0 1 1.027-1.595 4.699 4.699 0 0 1 1.555-1.034 5.01 5.01 0 0 1 1.935-.37c.69 0 1.319.113 1.884.34a3.884 3.884 0 0 1 1.436.983c.392.428.694.947.907 1.555.213.609.32 1.294.32 2.057zm8.874-1.324c0-.71-.213-1.234-.638-1.575-.425-.341-.99-.512-1.695-.512-.532 0-1.034.104-1.506.311a3.811 3.811 0 0 0-1.186.792l-.997-1.203a5.029 5.029 0 0 1 1.705-1.044 6.06 6.06 0 0 1 2.164-.38c.678 0 1.266.096 1.764.29.499.194.908.458 1.227.793.319.334.558.729.718 1.183.16.455.239.943.239 1.465v4.153c0 .321.01.659.03 1.013.02.355.056.646.11.873h-1.696a5.973 5.973 0 0 1-.159-1.364h-.06a3.638 3.638 0 0 1-1.306 1.183c-.525.281-1.147.422-1.865.422-.372 0-.76-.05-1.166-.15a3.38 3.38 0 0 1-1.107-.492 2.77 2.77 0 0 1-.827-.903c-.22-.375-.33-.836-.33-1.385 0-.722.193-1.294.579-1.715.385-.421.89-.742 1.515-.963a8.514 8.514 0 0 1 2.114-.431 27.92 27.92 0 0 1 2.373-.1v-.261zm-.458 1.625c-.466 0-.948.02-1.446.06-.499.04-.95.12-1.356.24a2.575 2.575 0 0 0-1.007.542c-.266.241-.4.562-.4.963 0 .281.057.515.17.703.113.187.263.34.45.461a1.8 1.8 0 0 0 .617.25c.226.048.459.071.698.071.878 0 1.552-.264 2.024-.792.472-.529.708-1.194.708-1.997v-.501h-.458zm10.987-2.568a2.562 2.562 0 0 0-2.194-1.184 2.96 2.96 0 0 0-.637.07 1.88 1.88 0 0 0-.569.22 1.227 1.227 0 0 0-.399.382c-.1.154-.15.344-.15.572 0 .401.18.699.54.893.358.194.897.37 1.615.531a10 10 0 0 1 1.256.381c.385.148.721.332 1.007.552.286.22.508.485.668.793.16.307.24.668.24 1.083 0 .562-.107 1.037-.32 1.425a2.78 2.78 0 0 1-.847.953 3.464 3.464 0 0 1-1.207.531c-.452.107-.917.16-1.396.16-.718 0-1.419-.14-2.103-.42a4.12 4.12 0 0 1-1.705-1.285l1.336-1.143a3.06 3.06 0 0 0 1.047.943c.445.254.933.381 1.465.381.24 0 .469-.023.688-.07.22-.047.419-.124.598-.231.18-.107.323-.247.43-.421.106-.174.159-.395.159-.662 0-.442-.21-.77-.628-.983-.42-.214-1.034-.415-1.845-.602-.32-.08-.641-.178-.967-.291a3.23 3.23 0 0 1-.888-.472 2.357 2.357 0 0 1-.648-.752c-.166-.301-.249-.672-.249-1.114 0-.508.103-.946.31-1.314a2.68 2.68 0 0 1 .807-.903 3.544 3.544 0 0 1 1.136-.521 5.076 5.076 0 0 1 3.28.23c.632.268 1.12.656 1.467 1.164l-1.297 1.104zm11.168 1.504a3.606 3.606 0 0 0-.19-1.053 2.421 2.421 0 0 0-.498-.853 2.343 2.343 0 0 0-.818-.571 2.888 2.888 0 0 0-1.147-.211 3.014 3.014 0 0 0-2.044.782 3.01 3.01 0 0 0-.638.853 2.733 2.733 0 0 0-.289 1.053h5.624zm1.894.763v.32c0 .108-.007.215-.02.322h-7.498a2.96 2.96 0 0 0 .937 2.056 3.095 3.095 0 0 0 2.134.833c.638 0 1.19-.14 1.655-.421a3.386 3.386 0 0 0 1.097-1.024l1.316 1.064c-.505.668-1.1 1.16-1.785 1.474-.684.315-1.445.472-2.283.472-.718 0-1.383-.12-1.994-.361a4.604 4.604 0 0 1-1.575-1.014 4.699 4.699 0 0 1-1.037-1.575c-.253-.615-.38-1.297-.38-2.046 0-.736.124-1.414.37-2.036a4.664 4.664 0 0 1 1.027-1.595 4.699 4.699 0 0 1 1.555-1.034 5.01 5.01 0 0 1 1.934-.37c.692 0 1.32.113 1.885.34a3.884 3.884 0 0 1 1.436.983c.392.428.694.947.907 1.555.213.609.319 1.294.319 2.057z"/>
</svg>
