<svg xmlns="http://www.w3.org/2000/svg" width="129" height="26">
  <path fill="#9B9B9B" d="M8.527 13a4.494 4.494 0 0 1 4.492-4.484A4.493 4.493 0 0 1 17.511 13a4.493 4.493 0 0 1-4.492 4.485A4.493 4.493 0 0 1 8.527 13zm14.835-5.92c-.035.062-.1.1-.171.1h-9.663a5.85 5.85 0 0 0-6.176 4.362.197.197 0 0 1-.362.048L3.607 5.74a.196.196 0 0 1 .016-.221A11.973 11.973 0 0 1 13.02 1c2.123 0 4.21.56 6.035 1.62a12.084 12.084 0 0 1 4.306 4.263c.036.06.037.136.002.198zM14.795 18.7c.049.063.055.15.015.22l-3.384 5.852a.197.197 0 0 1-.2.097 12.022 12.022 0 0 1-7.283-4.001 11.984 11.984 0 0 1-1.4-13.751.197.197 0 0 1 .342-.002l4.826 8.347a5.883 5.883 0 0 0 5.308 3.382c.531 0 1.059-.071 1.567-.213a.197.197 0 0 1 .209.07zm9.232-10.207c.081 0 .154.05.184.125.549 1.396.827 2.87.827 4.383 0 3.181-1.234 6.179-3.476 8.44A11.955 11.955 0 0 1 13.155 25h-.002a.197.197 0 0 1-.17-.295l4.834-8.362A5.796 5.796 0 0 0 18.871 13c0-1.579-.624-3.06-1.758-4.17a.196.196 0 0 1 .138-.337h6.776zm32.981-.448c-.256-1.22-.82-2.134-1.694-2.744-.874-.61-1.911-.915-3.113-.915-1.026 0-1.903.192-2.632.578-.73.385-1.33.902-1.803 1.552a6.707 6.707 0 0 0-1.046 2.227 9.973 9.973 0 0 0-.336 2.6c0 .98.112 1.907.336 2.781.224.875.573 1.638 1.046 2.288a5.166 5.166 0 0 0 1.815 1.553c.737.385 1.618.577 2.644.577.753 0 1.422-.124 2.007-.373a4.543 4.543 0 0 0 1.514-1.035c.425-.441.758-.967.998-1.577s.385-1.268.433-1.974h2.283c-.224 2.167-.97 3.852-2.235 5.056-1.266 1.203-2.997 1.805-5.193 1.805-1.33 0-2.491-.228-3.485-.686a6.847 6.847 0 0 1-2.476-1.89c-.657-.802-1.15-1.75-1.478-2.84a12.14 12.14 0 0 1-.493-3.516c0-1.252.176-2.427.529-3.527.352-1.1.87-2.058 1.55-2.877a7.23 7.23 0 0 1 2.548-1.938c1.018-.474 2.184-.71 3.498-.71.897 0 1.747.12 2.548.36a6.9 6.9 0 0 1 2.14 1.06 5.95 5.95 0 0 1 1.562 1.746c.416.698.689 1.504.817 2.42h-2.284zM61.96 2.87h2.043v6.573h.048c.16-.386.385-.71.674-.975.288-.265.612-.482.973-.65.36-.169.737-.293 1.13-.374.392-.08.773-.12 1.142-.12.817 0 1.498.112 2.043.337.545.225.985.538 1.322.939.336.401.573.879.71 1.433.135.553.203 1.167.203 1.841v8.186h-2.043v-8.426c0-.77-.224-1.38-.673-1.83-.449-.45-1.066-.674-1.85-.674-.626 0-1.167.096-1.623.289a3.042 3.042 0 0 0-1.142.818 3.528 3.528 0 0 0-.685 1.24 5.05 5.05 0 0 0-.229 1.553v7.03H61.96V2.87zm13.293 4.743h1.923v2.624h.048c.497-1.011 1.106-1.757 1.827-2.239.721-.481 1.635-.706 2.74-.674V9.49c-.817 0-1.514.112-2.09.337-.578.225-1.043.554-1.395.987-.353.433-.609.959-.77 1.577-.16.618-.24 1.328-.24 2.13v5.538h-2.043V7.612zm9.135 6.236c0 .754.1 1.424.3 2.01.2.586.477 1.075.83 1.469a3.59 3.59 0 0 0 1.237.902 3.68 3.68 0 0 0 1.503.313 3.68 3.68 0 0 0 1.502-.313c.473-.208.885-.51 1.238-.902.353-.394.629-.883.83-1.47.2-.585.3-1.255.3-2.01 0-.754-.1-1.424-.3-2.01-.201-.586-.477-1.08-.83-1.48a3.532 3.532 0 0 0-1.238-.915 3.68 3.68 0 0 0-1.502-.313 3.68 3.68 0 0 0-1.503.313 3.532 3.532 0 0 0-1.238.915c-.352.4-.629.894-.829 1.48-.2.586-.3 1.256-.3 2.01zm-2.164 0c0-.915.128-1.77.385-2.565a5.812 5.812 0 0 1 1.154-2.07 5.436 5.436 0 0 1 1.899-1.384c.753-.337 1.618-.506 2.596-.506.993 0 1.863.169 2.608.506a5.463 5.463 0 0 1 1.887 1.384 5.812 5.812 0 0 1 1.154 2.07c.256.795.384 1.65.384 2.565 0 .914-.128 1.765-.384 2.552a5.828 5.828 0 0 1-1.154 2.058 5.333 5.333 0 0 1-1.887 1.372c-.745.33-1.615.494-2.608.494-.978 0-1.843-.165-2.596-.494a5.308 5.308 0 0 1-1.9-1.372A5.828 5.828 0 0 1 82.61 16.4a8.188 8.188 0 0 1-.385-2.552zm14.47-6.236h1.924v1.83h.048c.93-1.413 2.268-2.119 4.014-2.119.77 0 1.467.16 2.092.482.625.32 1.065.866 1.322 1.637a4.341 4.341 0 0 1 1.646-1.565 4.64 4.64 0 0 1 2.248-.554c.625 0 1.19.068 1.695.205.504.136.937.349 1.298.638.36.289.64.662.841 1.12.2.457.3 1.006.3 1.648v9.125h-2.043v-8.162c0-.385-.032-.746-.096-1.083a2.214 2.214 0 0 0-.36-.879 1.8 1.8 0 0 0-.734-.59c-.312-.144-.717-.216-1.214-.216-1.01 0-1.802.289-2.38.866-.576.578-.865 1.349-.865 2.312v7.752h-2.043v-8.162c0-.4-.036-.77-.108-1.107a2.352 2.352 0 0 0-.373-.879 1.74 1.74 0 0 0-.709-.578c-.296-.136-.677-.204-1.142-.204-.593 0-1.101.12-1.526.36a3.46 3.46 0 0 0-1.61 1.915c-.12.361-.18.662-.18.903v7.752h-2.044V7.612zm29.135 5.032a4.192 4.192 0 0 0-.325-1.373 3.508 3.508 0 0 0-.745-1.12 3.49 3.49 0 0 0-2.512-1.023c-.529 0-1.005.093-1.43.278-.425.184-.79.437-1.094.758a3.629 3.629 0 0 0-.72 1.12 4.241 4.241 0 0 0-.313 1.36h7.139zm1.971 3.467c-.272 1.396-.873 2.447-1.803 3.154-.93.706-2.1 1.059-3.51 1.059-.993 0-1.854-.16-2.583-.482a5.095 5.095 0 0 1-1.84-1.348 5.738 5.738 0 0 1-1.117-2.07 9.992 9.992 0 0 1-.42-2.625c0-.947.143-1.813.432-2.6a6.216 6.216 0 0 1 1.214-2.046 5.509 5.509 0 0 1 1.85-1.348 5.644 5.644 0 0 1 2.344-.482c1.106 0 2.024.229 2.753.686a5.447 5.447 0 0 1 1.755 1.746c.44.706.745 1.476.913 2.31.168.836.236 1.63.204 2.384h-9.302a4.948 4.948 0 0 0 .192 1.553c.144.49.377.923.697 1.3.32.378.73.679 1.226.903.497.225 1.082.337 1.755.337.865 0 1.574-.2 2.127-.602.553-.4.918-1.01 1.094-1.83h2.019z"/>
</svg>
