<svg xmlns="http://www.w3.org/2000/svg" width="129" height="26">
  <path fill="#FFF" d="M8.515 12.963c0-2.465 2.012-4.47 4.485-4.47 2.473 0 4.484 2.005 4.484 4.47s-2.011 4.47-4.484 4.47-4.485-2.005-4.485-4.47zm14.812-5.902c-.035.062-.1.1-.171.1h-9.631l-.017-.001a5.84 5.84 0 0 0-6.167 4.348.197.197 0 0 1-.36.049L3.602 5.724a.195.195 0 0 1 .017-.22A11.961 11.961 0 0 1 13 1c2.12 0 4.204.559 6.026 1.616a12.056 12.056 0 0 1 4.299 4.248.198.198 0 0 1 .002.197zm-8.554 11.583c.05.063.055.15.015.219l-3.379 5.834a.197.197 0 0 1-.2.096 12.008 12.008 0 0 1-7.271-3.988A11.935 11.935 0 0 1 2.54 7.098c.034-.062.1-.1.17-.1h.001c.07 0 .135.037.17.098l4.82 8.32a5.875 5.875 0 0 0 5.3 3.372 5.85 5.85 0 0 0 1.564-.212.197.197 0 0 1 .208.068zM23.991 8.47c.08 0 .153.05.183.125.548 1.391.826 2.861.826 4.369a11.87 11.87 0 0 1-3.47 8.414 11.945 11.945 0 0 1-8.394 3.547h-.002a.197.197 0 0 1-.17-.294l4.827-8.335a5.771 5.771 0 0 0 1.052-3.332 5.771 5.771 0 0 0-1.755-4.158.196.196 0 0 1 .138-.336h6.765zm32.929-.446c-.256-1.216-.82-2.128-1.692-2.736-.872-.608-1.908-.912-3.108-.912-1.024 0-1.9.192-2.628.576-.728.384-1.328.9-1.8 1.548a6.681 6.681 0 0 0-1.044 2.22 9.927 9.927 0 0 0-.336 2.592c0 .976.112 1.9.336 2.772.224.872.572 1.632 1.044 2.28a5.156 5.156 0 0 0 1.812 1.548c.736.384 1.616.576 2.64.576.752 0 1.42-.124 2.004-.372a4.536 4.536 0 0 0 1.512-1.032 4.75 4.75 0 0 0 .996-1.572c.24-.608.384-1.264.432-1.968h2.28c-.224 2.16-.968 3.84-2.232 5.04-1.264 1.2-2.992 1.8-5.184 1.8-1.328 0-2.488-.228-3.48-.684A6.835 6.835 0 0 1 46 17.815c-.656-.8-1.148-1.744-1.476-2.832a12.083 12.083 0 0 1-.492-3.504c0-1.248.176-2.42.528-3.516.352-1.096.868-2.052 1.548-2.868a7.217 7.217 0 0 1 2.544-1.932c1.016-.472 2.18-.708 3.492-.708.896 0 1.744.12 2.544.36s1.512.592 2.136 1.056a5.935 5.935 0 0 1 1.56 1.74c.416.696.688 1.5.816 2.412h-2.28zm4.944-5.16h2.04v6.552h.048c.16-.384.384-.708.672-.972.288-.264.612-.48.972-.648.36-.168.736-.292 1.128-.372.392-.08.772-.12 1.14-.12.816 0 1.496.112 2.04.336.544.224.984.536 1.32.936.336.4.572.876.708 1.428.136.552.204 1.164.204 1.836V20h-2.04v-8.4c0-.768-.224-1.376-.672-1.824-.448-.448-1.064-.672-1.848-.672-.624 0-1.164.096-1.62.288a3.038 3.038 0 0 0-1.14.816 3.516 3.516 0 0 0-.684 1.236 5.026 5.026 0 0 0-.228 1.548V20h-2.04V2.863zm13.272 4.728h1.92v2.616h.048c.496-1.008 1.104-1.752 1.824-2.232.72-.48 1.632-.704 2.736-.672v2.16c-.816 0-1.512.112-2.088.336-.576.224-1.04.552-1.392.984-.352.432-.608.956-.768 1.572-.16.616-.24 1.324-.24 2.124V20h-2.04V7.591zm9.12 6.216c0 .752.1 1.42.3 2.004.2.584.476 1.072.828 1.464.352.392.764.692 1.236.9.472.208.972.312 1.5.312s1.028-.104 1.5-.312a3.593 3.593 0 0 0 1.236-.9c.352-.392.628-.88.828-1.464.2-.584.3-1.252.3-2.004s-.1-1.42-.3-2.004c-.2-.584-.476-1.076-.828-1.476a3.526 3.526 0 0 0-1.236-.912 3.679 3.679 0 0 0-1.5-.312c-.528 0-1.028.104-1.5.312a3.526 3.526 0 0 0-1.236.912c-.352.4-.628.892-.828 1.476-.2.584-.3 1.252-.3 2.004zm-2.16 0c0-.912.128-1.764.384-2.556s.64-1.48 1.152-2.064a5.427 5.427 0 0 1 1.896-1.38c.752-.336 1.616-.504 2.592-.504.992 0 1.86.168 2.604.504a5.454 5.454 0 0 1 1.884 1.38 5.791 5.791 0 0 1 1.152 2.064c.256.792.384 1.644.384 2.556a8.15 8.15 0 0 1-.384 2.544 5.807 5.807 0 0 1-1.152 2.052 5.325 5.325 0 0 1-1.884 1.368c-.744.328-1.612.492-2.604.492-.976 0-1.84-.164-2.592-.492a5.3 5.3 0 0 1-1.896-1.368 5.807 5.807 0 0 1-1.152-2.052 8.15 8.15 0 0 1-.384-2.544zm14.448-6.216h1.92v1.824h.048c.928-1.408 2.264-2.112 4.008-2.112.768 0 1.464.16 2.088.48.624.32 1.064.864 1.32 1.632a4.332 4.332 0 0 1 1.644-1.56 4.638 4.638 0 0 1 2.244-.552c.624 0 1.188.068 1.692.204a3.51 3.51 0 0 1 1.296.636c.36.288.64.66.84 1.116.2.456.3 1.004.3 1.644V20h-2.04v-8.136a5.77 5.77 0 0 0-.096-1.08 2.205 2.205 0 0 0-.36-.876 1.797 1.797 0 0 0-.732-.588c-.312-.144-.716-.216-1.212-.216-1.008 0-1.8.288-2.376.864-.576.576-.864 1.344-.864 2.304V20h-2.04v-8.136c0-.4-.036-.768-.108-1.104a2.342 2.342 0 0 0-.372-.876 1.738 1.738 0 0 0-.708-.576c-.296-.136-.676-.204-1.14-.204-.592 0-1.1.12-1.524.36a3.454 3.454 0 0 0-1.608 1.908c-.12.36-.18.66-.18.9V20h-2.04V7.591zm29.088 5.016a4.174 4.174 0 0 0-.324-1.368 3.496 3.496 0 0 0-.744-1.116 3.49 3.49 0 0 0-2.508-1.02c-.528 0-1.004.092-1.428.276a3.298 3.298 0 0 0-1.092.756c-.304.32-.544.692-.72 1.116a4.25 4.25 0 0 0-.312 1.356h7.128zm1.968 3.456c-.272 1.392-.872 2.44-1.8 3.144-.928.704-2.096 1.056-3.504 1.056-.992 0-1.852-.16-2.58-.48a5.086 5.086 0 0 1-1.836-1.344c-.496-.576-.868-1.264-1.116-2.064a9.946 9.946 0 0 1-.42-2.616c0-.944.144-1.808.432-2.592a6.195 6.195 0 0 1 1.212-2.04 5.5 5.5 0 0 1 1.848-1.344 5.642 5.642 0 0 1 2.34-.48c1.104 0 2.02.228 2.748.684a5.434 5.434 0 0 1 1.752 1.74c.44.704.744 1.472.912 2.304.168.832.236 1.624.204 2.376h-9.288c-.016.544.048 1.06.192 1.548.144.488.376.92.696 1.296.32.376.728.676 1.224.9.496.224 1.08.336 1.752.336.864 0 1.572-.2 2.124-.6.552-.4.916-1.008 1.092-1.824h2.016z"/>
</svg>
